<svg width="231" height="59" viewBox="0 0 231 59" fill="none" xmlns="http://www.w3.org/2000/svg">
<path d="M87.9697 11.1914C92.1229 4.24962 99.6175 0 107.707 0H223.819C229.256 0 232.618 5.9281 229.826 10.5939L208.151 46.822C203.818 54.0656 195.997 58.5 187.556 58.5H72.0107C66.5736 58.5 63.2123 52.5719 66.0038 47.9061L87.9697 11.1914Z" fill="url(#paint0_linear_135_282)"/>
<path d="M10.6108 46H1.02273L11.8253 13.2727H23.9702L34.7727 46H25.1847L18.0256 22.2855H17.7699L10.6108 46ZM8.82102 33.0881H26.8466V39.7358H8.82102V33.0881ZM52.0073 21.4545V27.8466H35.5797V21.4545H52.0073ZM38.7118 46V20.7514C38.7118 18.7273 39.074 17.0494 39.7985 15.7177C40.5229 14.386 41.5456 13.3899 42.8667 12.7294C44.1877 12.0689 45.7431 11.7386 47.5328 11.7386C48.6515 11.7386 49.7381 11.8239 50.7928 11.9943C51.8581 12.1648 52.6465 12.3139 53.1578 12.4418L51.8794 18.7699C51.5598 18.674 51.187 18.5994 50.7608 18.5462C50.3347 18.4822 49.9618 18.4503 49.6422 18.4503C48.8113 18.4503 48.252 18.6261 47.9643 18.9776C47.6767 19.3292 47.5328 19.7926 47.5328 20.3679V46H38.7118ZM70.1127 21.4545V27.8466H53.6852V21.4545H70.1127ZM56.8173 46V20.7514C56.8173 18.7273 57.1795 17.0494 57.9039 15.7177C58.6284 14.386 59.6511 13.3899 60.9721 12.7294C62.2931 12.0689 63.8485 11.7386 65.6383 11.7386C66.7569 11.7386 67.8436 11.8239 68.8983 11.9943C69.9636 12.1648 70.752 12.3139 71.2633 12.4418L69.9849 18.7699C69.6653 18.674 69.2924 18.5994 68.8663 18.5462C68.4402 18.4822 68.0673 18.4503 67.7477 18.4503C66.9167 18.4503 66.3574 18.6261 66.0698 18.9776C65.7821 19.3292 65.6383 19.7926 65.6383 20.3679V46H56.8173ZM73.5165 46V21.4545H82.3375V46H73.5165ZM77.927 18.8977C76.7338 18.8977 75.7111 18.5036 74.8588 17.7152C74.0066 16.9268 73.5804 15.9787 73.5804 14.8707C73.5804 13.7628 74.0066 12.8146 74.8588 12.0263C75.7111 11.2379 76.7338 10.8438 77.927 10.8438C79.1309 10.8438 80.1536 11.2379 80.9952 12.0263C81.8475 12.8146 82.2736 13.7628 82.2736 14.8707C82.2736 15.9787 81.8475 16.9268 80.9952 17.7152C80.1536 18.5036 79.1309 18.8977 77.927 18.8977Z" fill="black"/>
<path d="M86.7041 46V13.2727H95.589V38.8409H108.821V46H86.7041ZM112.54 46V21.4545H121.361V46H112.54ZM116.95 18.8977C115.757 18.8977 114.735 18.5036 113.882 17.7152C113.03 16.9268 112.604 15.9787 112.604 14.8707C112.604 13.7628 113.03 12.8146 113.882 12.0263C114.735 11.2379 115.757 10.8438 116.95 10.8438C118.154 10.8438 119.177 11.2379 120.019 12.0263C120.871 12.8146 121.297 13.7628 121.297 14.8707C121.297 15.9787 120.871 16.9268 120.019 17.7152C119.177 18.5036 118.154 18.8977 116.95 18.8977ZM134.676 32.1932V46H125.855V21.4545H134.229V26.1207H134.485C135.017 24.5653 135.955 23.3455 137.297 22.4613C138.65 21.5771 140.227 21.1349 142.027 21.1349C143.764 21.1349 145.271 21.5344 146.55 22.3335C147.839 23.1218 148.835 24.2085 149.538 25.5934C150.252 26.9783 150.603 28.5604 150.593 30.3395V46H141.772V32.1932C141.782 30.9787 141.473 30.0252 140.845 29.3327C140.227 28.6403 139.364 28.294 138.256 28.294C137.532 28.294 136.898 28.4538 136.354 28.7734C135.822 29.0824 135.411 29.5298 135.124 30.1158C134.836 30.6911 134.687 31.3835 134.676 32.1932ZM162.873 40.1832L162.937 29.7003H164.088L170.032 21.4545H179.94L169.968 34.3026H167.476L162.873 40.1832ZM154.947 46V13.2727H163.768V46H154.947ZM170.096 46L164.471 36.2841L170.224 30.0199L180.196 46H170.096ZM204.673 29.4446H196.555C196.513 28.9439 196.337 28.5124 196.028 28.1502C195.719 27.788 195.32 27.511 194.83 27.3192C194.35 27.1168 193.817 27.0156 193.232 27.0156C192.475 27.0156 191.825 27.1541 191.282 27.4311C190.739 27.7081 190.472 28.1023 190.483 28.6136C190.472 28.9759 190.627 29.3114 190.946 29.6204C191.277 29.9293 191.911 30.169 192.848 30.3395L197.834 31.2344C200.348 31.6925 202.218 32.4648 203.443 33.5515C204.679 34.6275 205.302 36.071 205.312 37.8821C205.302 39.6293 204.78 41.1474 203.746 42.4364C202.724 43.7148 201.323 44.7056 199.544 45.4087C197.775 46.1012 195.756 46.4474 193.487 46.4474C189.737 46.4474 186.802 45.6804 184.682 44.1463C182.573 42.6122 181.396 40.5881 181.151 38.0739H189.908C190.025 38.8516 190.408 39.4535 191.058 39.8796C191.719 40.2951 192.55 40.5028 193.551 40.5028C194.361 40.5028 195.027 40.3643 195.549 40.0874C196.081 39.8104 196.353 39.4162 196.364 38.9048C196.353 38.4361 196.119 38.0632 195.661 37.7862C195.213 37.5092 194.51 37.2855 193.551 37.1151L189.205 36.348C186.701 35.9112 184.826 35.0803 183.58 33.8551C182.333 32.63 181.715 31.0533 181.726 29.125C181.715 27.4205 182.163 25.9769 183.068 24.7944C183.984 23.6012 185.289 22.6957 186.983 22.0778C188.688 21.4492 190.707 21.1349 193.04 21.1349C196.587 21.1349 199.384 21.87 201.429 23.3402C203.485 24.8104 204.567 26.8452 204.673 29.4446Z" fill="white"/>
<defs>
<linearGradient id="paint0_linear_135_282" x1="79.9999" y1="29" x2="216.999" y2="29" gradientUnits="userSpaceOnUse">
<stop stop-color="#FF3030"/>
<stop offset="0.48" stop-color="#FD6639"/>
<stop offset="1" stop-color="#FA9253"/>
</linearGradient>
</defs>
</svg>